<svg width="182" height="182" viewBox="0 0 182 182" fill="none" xmlns="http://www.w3.org/2000/svg">
<g clip-path="url(#clip0_361_395)">
<path d="M93.8808 182C110.607 182 124.165 168.441 124.165 151.715C124.165 134.99 110.607 121.431 93.8808 121.431C77.1551 121.431 63.5962 134.99 63.5962 151.715C63.5962 168.441 77.1551 182 93.8808 182Z" fill="#FB6F3E"/>
<path d="M50.0961 166.247C66.8219 166.247 80.3807 152.688 80.3807 135.963C80.3807 119.237 66.8219 105.678 50.0961 105.678C33.3704 105.678 19.8115 119.237 19.8115 135.963C19.8115 152.688 33.3704 166.247 50.0961 166.247Z" fill="#FB6F3E"/>
<path d="M30.2846 124.148C47.0103 124.148 60.5692 110.589 60.5692 93.8633C60.5692 77.1376 47.0103 63.5787 30.2846 63.5787C13.5589 63.5787 0 77.1376 0 93.8633C0 110.589 13.5589 124.148 30.2846 124.148Z" fill="#FB6F3E"/>
<path d="M46.0375 80.3806C62.7633 80.3806 76.3221 66.8217 76.3221 50.096C76.3221 33.3703 62.7633 19.8114 46.0375 19.8114C29.3118 19.8114 15.7529 33.3703 15.7529 50.096C15.7529 66.8217 29.3118 80.3806 46.0375 80.3806Z" fill="#FB6F3E"/>
<path d="M88.1367 60.5692C104.862 60.5692 118.421 47.0103 118.421 30.2846C118.421 13.5589 104.862 0 88.1367 0C71.4109 0 57.8521 13.5589 57.8521 30.2846C57.8521 47.0103 71.4109 60.5692 88.1367 60.5692Z" fill="#FB6F3E"/>
<path d="M131.904 76.322C148.63 76.322 162.189 62.7631 162.189 46.0374C162.189 29.3117 148.63 15.7528 131.904 15.7528C115.179 15.7528 101.62 29.3117 101.62 46.0374C101.62 62.7631 115.179 76.322 131.904 76.322Z" fill="#FB6F3E"/>
<path d="M151.715 118.421C168.441 118.421 182 104.862 182 88.1367C182 71.4109 168.441 57.8521 151.715 57.8521C134.99 57.8521 121.431 71.4109 121.431 88.1367C121.431 104.862 134.99 118.421 151.715 118.421Z" fill="#FB6F3E"/>
<path d="M135.962 162.189C152.688 162.189 166.247 148.63 166.247 131.904C166.247 115.178 152.688 101.619 135.962 101.619C119.237 101.619 105.678 115.178 105.678 131.904C105.678 148.63 119.237 162.189 135.962 162.189Z" fill="#FB6F3E"/>
<path d="M91.7651 53.415C67.0524 53.415 47.0347 71.3863 47.0347 93.5366C47.0347 115.687 67.0696 133.658 91.7651 133.658C116.461 133.658 136.496 115.687 136.496 93.5366C136.496 71.3863 116.461 53.415 91.7651 53.415Z" fill="#FB6F3E"/>
</g>
<path d="M43.5729 77.16C42.7943 77.16 42.0796 77.0213 41.4289 76.744C40.7783 76.4667 40.2129 76.072 39.7329 75.56C39.2529 75.0373 38.8796 74.424 38.6129 73.72C38.3569 73.016 38.2289 72.2427 38.2289 71.4C38.2289 70.6 38.3676 69.8587 38.6449 69.176C38.9329 68.4827 39.3276 67.8747 39.8289 67.352C40.3303 66.8293 40.9116 66.424 41.5729 66.136C42.2343 65.848 42.9489 65.704 43.7169 65.704C44.2609 65.704 44.7889 65.7893 45.3009 65.96C45.8236 66.12 46.2929 66.3493 46.7089 66.648C47.1356 66.936 47.4823 67.2667 47.7489 67.64L46.5969 68.84C46.2876 68.5307 45.9729 68.2747 45.6529 68.072C45.3436 67.8587 45.0236 67.6987 44.6929 67.592C44.3729 67.4853 44.0476 67.432 43.7169 67.432C43.1943 67.432 42.7036 67.5333 42.2449 67.736C41.7969 67.928 41.4023 68.2 41.0609 68.552C40.7303 68.904 40.4689 69.3253 40.2769 69.816C40.0849 70.296 39.9889 70.824 39.9889 71.4C39.9889 72.008 40.0796 72.5627 40.2609 73.064C40.4529 73.5547 40.7196 73.976 41.0609 74.328C41.4023 74.68 41.8076 74.952 42.2769 75.144C42.7569 75.3253 43.2849 75.416 43.8609 75.416C44.2129 75.416 44.5596 75.368 44.9009 75.272C45.2423 75.176 45.5623 75.0373 45.8609 74.856C46.1596 74.6747 46.4316 74.4613 46.6769 74.216L47.5409 75.624C47.2956 75.912 46.9596 76.1733 46.5329 76.408C46.1169 76.6427 45.6476 76.8293 45.1249 76.968C44.6129 77.096 44.0956 77.16 43.5729 77.16ZM49.4723 77V65.16H51.1203V70.328L50.8323 70.52C50.939 70.1467 51.147 69.8053 51.4563 69.496C51.7656 69.176 52.1336 68.92 52.5603 68.728C52.987 68.5253 53.4243 68.424 53.8723 68.424C54.5123 68.424 55.0456 68.552 55.4723 68.808C55.899 69.0533 56.219 69.432 56.4323 69.944C56.6456 70.456 56.7523 71.1013 56.7523 71.88V77H55.1043V71.992C55.1043 71.512 55.0403 71.1173 54.9123 70.808C54.7843 70.488 54.587 70.2587 54.3203 70.12C54.0536 69.9707 53.723 69.9067 53.3283 69.928C53.0083 69.928 52.715 69.9813 52.4483 70.088C52.1816 70.184 51.947 70.3227 51.7443 70.504C51.5523 70.6853 51.3976 70.8987 51.2803 71.144C51.1736 71.3787 51.1203 71.6347 51.1203 71.912V77H50.3043C50.1656 77 50.027 77 49.8883 77C49.7496 77 49.611 77 49.4723 77ZM62.9079 77.16C62.0439 77.16 61.2759 76.9787 60.6039 76.616C59.9426 76.2427 59.4199 75.736 59.0359 75.096C58.6626 74.456 58.4759 73.72 58.4759 72.888C58.4759 72.2267 58.5826 71.624 58.7959 71.08C59.0093 70.536 59.3026 70.0667 59.6759 69.672C60.0599 69.2667 60.5133 68.9573 61.0359 68.744C61.5693 68.52 62.1453 68.408 62.7639 68.408C63.3079 68.408 63.8146 68.5147 64.2839 68.728C64.7533 68.9307 65.1586 69.2133 65.4999 69.576C65.8519 69.9387 66.1186 70.3707 66.2999 70.872C66.4919 71.3627 66.5826 71.9013 66.5719 72.488L66.5559 73.192H59.6919L59.3239 71.88H65.1319L64.8919 72.152V71.768C64.8599 71.416 64.7426 71.1013 64.5399 70.824C64.3373 70.5467 64.0813 70.328 63.7719 70.168C63.4626 70.008 63.1266 69.928 62.7639 69.928C62.1879 69.928 61.7026 70.04 61.3079 70.264C60.9133 70.4773 60.6146 70.7973 60.4119 71.224C60.2093 71.64 60.1079 72.1573 60.1079 72.776C60.1079 73.3627 60.2306 73.8747 60.4759 74.312C60.7213 74.7387 61.0679 75.0693 61.5159 75.304C61.9639 75.5387 62.4813 75.656 63.0679 75.656C63.4839 75.656 63.8679 75.5867 64.2199 75.448C64.5826 75.3093 64.9719 75.0587 65.3879 74.696L66.2199 75.864C65.9639 76.12 65.6493 76.344 65.2759 76.536C64.9133 76.728 64.5239 76.8827 64.1079 77C63.7026 77.1067 63.3026 77.16 62.9079 77.16ZM71.9309 77.16C71.1523 77.16 70.4536 76.968 69.8349 76.584C69.2269 76.2 68.7416 75.6773 68.3789 75.016C68.0269 74.3547 67.8509 73.6133 67.8509 72.792C67.8509 71.9707 68.0269 71.2293 68.3789 70.568C68.7416 69.9067 69.2269 69.384 69.8349 69C70.4536 68.616 71.1523 68.424 71.9309 68.424C72.6776 68.424 73.3549 68.5787 73.9629 68.888C74.5816 69.1867 75.0509 69.5973 75.3709 70.12L74.4589 71.24C74.2883 70.9947 74.0696 70.7707 73.8029 70.568C73.5363 70.3653 73.2536 70.2053 72.9549 70.088C72.6563 69.9707 72.3683 69.912 72.0909 69.912C71.5789 69.912 71.1203 70.04 70.7149 70.296C70.3203 70.5413 70.0056 70.8827 69.7709 71.32C69.5363 71.7573 69.4189 72.248 69.4189 72.792C69.4189 73.336 69.5416 73.8267 69.7869 74.264C70.0323 74.6907 70.3576 75.032 70.7629 75.288C71.1683 75.544 71.6163 75.672 72.1069 75.672C72.3949 75.672 72.6723 75.624 72.9389 75.528C73.2163 75.432 73.4829 75.288 73.7389 75.096C73.9949 74.904 74.2349 74.6693 74.4589 74.392L75.3709 75.512C75.0296 75.992 74.5389 76.3867 73.8989 76.696C73.2696 77.0053 72.6136 77.16 71.9309 77.16ZM78.4294 74.376L78.3494 72.584L82.3654 68.6H84.5894L78.4294 74.376ZM76.9254 77V65.16H78.5734V77H76.9254ZM82.5894 77L79.4214 73.304L80.5894 72.232L84.7014 77H82.5894ZM94.2796 77.16C93.4582 77.16 92.7222 76.9733 92.0716 76.6C91.4316 76.216 90.9249 75.6987 90.5516 75.048C90.1782 74.3867 89.9916 73.6347 89.9916 72.792C89.9916 71.9493 90.1782 71.2027 90.5516 70.552C90.9249 69.8907 91.4316 69.3733 92.0716 69C92.7222 68.616 93.4582 68.424 94.2796 68.424C95.0902 68.424 95.8156 68.616 96.4556 69C97.1062 69.3733 97.6182 69.8907 97.9916 70.552C98.3649 71.2027 98.5516 71.9493 98.5516 72.792C98.5516 73.6347 98.3649 74.3867 97.9916 75.048C97.6182 75.6987 97.1062 76.216 96.4556 76.6C95.8156 76.9733 95.0902 77.16 94.2796 77.16ZM94.2796 75.656C94.7809 75.656 95.2289 75.5333 95.6236 75.288C96.0182 75.032 96.3276 74.6907 96.5516 74.264C96.7756 73.8267 96.8822 73.336 96.8716 72.792C96.8822 72.2373 96.7756 71.7467 96.5516 71.32C96.3276 70.8827 96.0182 70.5413 95.6236 70.296C95.2289 70.0507 94.7809 69.928 94.2796 69.928C93.7782 69.928 93.3249 70.056 92.9196 70.312C92.5249 70.5573 92.2156 70.8987 91.9916 71.336C91.7676 71.7627 91.6609 72.248 91.6716 72.792C91.6609 73.336 91.7676 73.8267 91.9916 74.264C92.2156 74.6907 92.5249 75.032 92.9196 75.288C93.3249 75.5333 93.7782 75.656 94.2796 75.656ZM103.291 77.16C102.694 77.16 102.171 77.0213 101.723 76.744C101.286 76.4667 100.945 76.0773 100.699 75.576C100.465 75.0747 100.347 74.4773 100.347 73.784V68.6H101.995V73.336C101.995 73.8267 102.07 74.2533 102.219 74.616C102.379 74.968 102.603 75.24 102.891 75.432C103.19 75.624 103.547 75.72 103.963 75.72C104.273 75.72 104.555 75.672 104.811 75.576C105.067 75.4693 105.286 75.3253 105.467 75.144C105.659 74.9627 105.809 74.744 105.915 74.488C106.022 74.232 106.075 73.9547 106.075 73.656V68.6H107.723V77H106.075V75.24L106.363 75.048C106.235 75.4427 106.017 75.8 105.707 76.12C105.409 76.44 105.051 76.696 104.635 76.888C104.219 77.0693 103.771 77.16 103.291 77.16ZM111.075 77V66.456H112.723V77H111.075ZM109.331 70.2V68.6H114.675V70.2H109.331ZM121.7 77V66.456H123.348V77H121.7ZM119.956 70.2V68.6H125.3V70.2H119.956ZM126.8 77V65.16H128.448V70.328L128.16 70.52C128.267 70.1467 128.475 69.8053 128.784 69.496C129.094 69.176 129.462 68.92 129.888 68.728C130.315 68.5253 130.752 68.424 131.2 68.424C131.84 68.424 132.374 68.552 132.8 68.808C133.227 69.0533 133.547 69.432 133.76 69.944C133.974 70.456 134.08 71.1013 134.08 71.88V77H132.432V71.992C132.432 71.512 132.368 71.1173 132.24 70.808C132.112 70.488 131.915 70.2587 131.648 70.12C131.382 69.9707 131.051 69.9067 130.656 69.928C130.336 69.928 130.043 69.9813 129.776 70.088C129.51 70.184 129.275 70.3227 129.072 70.504C128.88 70.6853 128.726 70.8987 128.608 71.144C128.502 71.3787 128.448 71.6347 128.448 71.912V77H127.632C127.494 77 127.355 77 127.216 77C127.078 77 126.939 77 126.8 77ZM140.236 77.16C139.372 77.16 138.604 76.9787 137.932 76.616C137.271 76.2427 136.748 75.736 136.364 75.096C135.991 74.456 135.804 73.72 135.804 72.888C135.804 72.2267 135.911 71.624 136.124 71.08C136.337 70.536 136.631 70.0667 137.004 69.672C137.388 69.2667 137.841 68.9573 138.364 68.744C138.897 68.52 139.473 68.408 140.092 68.408C140.636 68.408 141.143 68.5147 141.612 68.728C142.081 68.9307 142.487 69.2133 142.828 69.576C143.18 69.9387 143.447 70.3707 143.628 70.872C143.82 71.3627 143.911 71.9013 143.9 72.488L143.884 73.192H137.02L136.652 71.88H142.46L142.22 72.152V71.768C142.188 71.416 142.071 71.1013 141.868 70.824C141.665 70.5467 141.409 70.328 141.1 70.168C140.791 70.008 140.455 69.928 140.092 69.928C139.516 69.928 139.031 70.04 138.636 70.264C138.241 70.4773 137.943 70.7973 137.74 71.224C137.537 71.64 137.436 72.1573 137.436 72.776C137.436 73.3627 137.559 73.8747 137.804 74.312C138.049 74.7387 138.396 75.0693 138.844 75.304C139.292 75.5387 139.809 75.656 140.396 75.656C140.812 75.656 141.196 75.5867 141.548 75.448C141.911 75.3093 142.3 75.0587 142.716 74.696L143.548 75.864C143.292 76.12 142.977 76.344 142.604 76.536C142.241 76.728 141.852 76.8827 141.436 77C141.031 77.1067 140.631 77.16 140.236 77.16ZM71.6888 97.16C70.9101 97.16 70.2114 96.968 69.5928 96.584C68.9848 96.2 68.4994 95.6773 68.1368 95.016C67.7848 94.3547 67.6088 93.6133 67.6088 92.792C67.6088 91.9707 67.7848 91.2293 68.1368 90.568C68.4994 89.9067 68.9848 89.384 69.5928 89C70.2114 88.616 70.9101 88.424 71.6888 88.424C72.4354 88.424 73.1128 88.5787 73.7208 88.888C74.3394 89.1867 74.8088 89.5973 75.1288 90.12L74.2168 91.24C74.0461 90.9947 73.8274 90.7707 73.5608 90.568C73.2941 90.3653 73.0114 90.2053 72.7128 90.088C72.4141 89.9707 72.1261 89.912 71.8488 89.912C71.3368 89.912 70.8781 90.04 70.4728 90.296C70.0781 90.5413 69.7634 90.8827 69.5288 91.32C69.2941 91.7573 69.1768 92.248 69.1768 92.792C69.1768 93.336 69.2994 93.8267 69.5448 94.264C69.7901 94.6907 70.1154 95.032 70.5208 95.288C70.9261 95.544 71.3741 95.672 71.8648 95.672C72.1528 95.672 72.4301 95.624 72.6968 95.528C72.9741 95.432 73.2408 95.288 73.4968 95.096C73.7528 94.904 73.9928 94.6693 74.2168 94.392L75.1288 95.512C74.7874 95.992 74.2968 96.3867 73.6568 96.696C73.0274 97.0053 72.3714 97.16 71.6888 97.16ZM80.4593 97.16C79.6379 97.16 78.9019 96.9733 78.2513 96.6C77.6113 96.216 77.1046 95.6987 76.7313 95.048C76.3579 94.3867 76.1713 93.6347 76.1713 92.792C76.1713 91.9493 76.3579 91.2027 76.7313 90.552C77.1046 89.8907 77.6113 89.3733 78.2513 89C78.9019 88.616 79.6379 88.424 80.4593 88.424C81.2699 88.424 81.9953 88.616 82.6353 89C83.2859 89.3733 83.7979 89.8907 84.1713 90.552C84.5446 91.2027 84.7313 91.9493 84.7313 92.792C84.7313 93.6347 84.5446 94.3867 84.1713 95.048C83.7979 95.6987 83.2859 96.216 82.6353 96.6C81.9953 96.9733 81.2699 97.16 80.4593 97.16ZM80.4593 95.656C80.9606 95.656 81.4086 95.5333 81.8033 95.288C82.1979 95.032 82.5073 94.6907 82.7313 94.264C82.9553 93.8267 83.0619 93.336 83.0513 92.792C83.0619 92.2373 82.9553 91.7467 82.7313 91.32C82.5073 90.8827 82.1979 90.5413 81.8033 90.296C81.4086 90.0507 80.9606 89.928 80.4593 89.928C79.9579 89.928 79.5046 90.056 79.0993 90.312C78.7046 90.5573 78.3953 90.8987 78.1713 91.336C77.9473 91.7627 77.8406 92.248 77.8513 92.792C77.8406 93.336 77.9473 93.8267 78.1713 94.264C78.3953 94.6907 78.7046 95.032 79.0993 95.288C79.5046 95.5333 79.9579 95.656 80.4593 95.656ZM90.031 97.16C89.263 97.16 88.575 96.9733 87.967 96.6C87.3697 96.216 86.895 95.6987 86.543 95.048C86.191 94.3867 86.015 93.6347 86.015 92.792C86.015 91.9493 86.1857 91.2027 86.527 90.552C86.879 89.8907 87.3537 89.3733 87.951 89C88.5483 88.616 89.2257 88.424 89.983 88.424C90.399 88.424 90.799 88.4933 91.183 88.632C91.5777 88.76 91.9297 88.9413 92.239 89.176C92.5483 89.4 92.7883 89.6507 92.959 89.928C93.1403 90.1947 93.231 90.4667 93.231 90.744L92.751 90.776V85.16H94.399V97H92.751V95H93.071C93.071 95.256 92.9857 95.512 92.815 95.768C92.6443 96.0133 92.415 96.2427 92.127 96.456C91.8497 96.6693 91.5243 96.84 91.151 96.968C90.7883 97.096 90.415 97.16 90.031 97.16ZM90.255 95.736C90.7563 95.736 91.199 95.608 91.583 95.352C91.967 95.096 92.2657 94.7493 92.479 94.312C92.703 93.864 92.815 93.3573 92.815 92.792C92.815 92.2267 92.703 91.7253 92.479 91.288C92.2657 90.84 91.967 90.488 91.583 90.232C91.199 89.976 90.7563 89.848 90.255 89.848C89.7537 89.848 89.311 89.976 88.927 90.232C88.543 90.488 88.239 90.84 88.015 91.288C87.8017 91.7253 87.695 92.2267 87.695 92.792C87.695 93.3573 87.8017 93.864 88.015 94.312C88.239 94.7493 88.543 95.096 88.927 95.352C89.311 95.608 89.7537 95.736 90.255 95.736ZM100.588 97.16C99.7236 97.16 98.9556 96.9787 98.2836 96.616C97.6223 96.2427 97.0996 95.736 96.7156 95.096C96.3423 94.456 96.1556 93.72 96.1556 92.888C96.1556 92.2267 96.2623 91.624 96.4756 91.08C96.689 90.536 96.9823 90.0667 97.3556 89.672C97.7396 89.2667 98.193 88.9573 98.7156 88.744C99.249 88.52 99.825 88.408 100.444 88.408C100.988 88.408 101.494 88.5147 101.964 88.728C102.433 88.9307 102.838 89.2133 103.18 89.576C103.532 89.9387 103.798 90.3707 103.98 90.872C104.172 91.3627 104.262 91.9013 104.252 92.488L104.236 93.192H97.3716L97.0036 91.88H102.812L102.572 92.152V91.768C102.54 91.416 102.422 91.1013 102.22 90.824C102.017 90.5467 101.761 90.328 101.452 90.168C101.142 90.008 100.806 89.928 100.444 89.928C99.8676 89.928 99.3823 90.04 98.9876 90.264C98.593 90.4773 98.2943 90.7973 98.0916 91.224C97.889 91.64 97.7876 92.1573 97.7876 92.776C97.7876 93.3627 97.9103 93.8747 98.1556 94.312C98.401 94.7387 98.7476 95.0693 99.1956 95.304C99.6436 95.5387 100.161 95.656 100.748 95.656C101.164 95.656 101.548 95.5867 101.9 95.448C102.262 95.3093 102.652 95.0587 103.068 94.696L103.9 95.864C103.644 96.12 103.329 96.344 102.956 96.536C102.593 96.728 102.204 96.8827 101.788 97C101.382 97.1067 100.982 97.16 100.588 97.16ZM109.547 97.16C108.779 97.16 108.091 96.9733 107.483 96.6C106.885 96.216 106.411 95.6987 106.059 95.048C105.707 94.3867 105.531 93.6347 105.531 92.792C105.531 91.9493 105.701 91.2027 106.043 90.552C106.395 89.8907 106.869 89.3733 107.467 89C108.064 88.616 108.741 88.424 109.499 88.424C109.915 88.424 110.315 88.4933 110.699 88.632C111.093 88.76 111.445 88.9413 111.755 89.176C112.064 89.4 112.304 89.6507 112.475 89.928C112.656 90.1947 112.747 90.4667 112.747 90.744L112.267 90.776V85.16H113.915V97H112.267V95H112.587C112.587 95.256 112.501 95.512 112.331 95.768C112.16 96.0133 111.931 96.2427 111.643 96.456C111.365 96.6693 111.04 96.84 110.667 96.968C110.304 97.096 109.931 97.16 109.547 97.16ZM109.771 95.736C110.272 95.736 110.715 95.608 111.099 95.352C111.483 95.096 111.781 94.7493 111.995 94.312C112.219 93.864 112.331 93.3573 112.331 92.792C112.331 92.2267 112.219 91.7253 111.995 91.288C111.781 90.84 111.483 90.488 111.099 90.232C110.715 89.976 110.272 89.848 109.771 89.848C109.269 89.848 108.827 89.976 108.443 90.232C108.059 90.488 107.755 90.84 107.531 91.288C107.317 91.7253 107.211 92.2267 107.211 92.792C107.211 93.3573 107.317 93.864 107.531 94.312C107.755 94.7493 108.059 95.096 108.443 95.352C108.827 95.608 109.269 95.736 109.771 95.736ZM55.5881 117V108.6H57.2361V117H55.5881ZM56.3881 106.744C56.0361 106.744 55.7641 106.653 55.5721 106.472C55.3801 106.291 55.2841 106.035 55.2841 105.704C55.2841 105.395 55.3801 105.144 55.5721 104.952C55.7747 104.76 56.0467 104.664 56.3881 104.664C56.7401 104.664 57.0121 104.755 57.2041 104.936C57.3961 105.117 57.4921 105.373 57.4921 105.704C57.4921 106.013 57.3907 106.264 57.1881 106.456C56.9961 106.648 56.7294 106.744 56.3881 106.744ZM59.7692 117V108.6H61.4172V110.328L61.1292 110.52C61.2359 110.147 61.4439 109.805 61.7532 109.496C62.0625 109.176 62.4305 108.92 62.8572 108.728C63.2839 108.525 63.7212 108.424 64.1692 108.424C64.8092 108.424 65.3425 108.552 65.7692 108.808C66.1959 109.053 66.5159 109.432 66.7292 109.944C66.9425 110.456 67.0492 111.101 67.0492 111.88V117H65.4012V111.992C65.4012 111.512 65.3372 111.117 65.2092 110.808C65.0812 110.488 64.8839 110.259 64.6172 110.12C64.3505 109.971 64.0199 109.907 63.6252 109.928C63.3052 109.928 63.0119 109.981 62.7452 110.088C62.4785 110.184 62.2439 110.323 62.0412 110.504C61.8492 110.685 61.6945 110.899 61.5772 111.144C61.4705 111.379 61.4172 111.635 61.4172 111.912V117H60.6012C60.4625 117 60.3239 117 60.1852 117C60.0465 117 59.9079 117 59.7692 117ZM70.3248 117V106.456H71.9728V117H70.3248ZM68.5808 110.2V108.6H73.9248V110.2H68.5808ZM79.2673 117.16C78.4033 117.16 77.6353 116.979 76.9633 116.616C76.302 116.243 75.7793 115.736 75.3953 115.096C75.022 114.456 74.8353 113.72 74.8353 112.888C74.8353 112.227 74.942 111.624 75.1553 111.08C75.3686 110.536 75.662 110.067 76.0353 109.672C76.4193 109.267 76.8726 108.957 77.3953 108.744C77.9286 108.52 78.5046 108.408 79.1233 108.408C79.6673 108.408 80.174 108.515 80.6433 108.728C81.1126 108.931 81.518 109.213 81.8593 109.576C82.2113 109.939 82.478 110.371 82.6593 110.872C82.8513 111.363 82.942 111.901 82.9313 112.488L82.9153 113.192H76.0513L75.6833 111.88H81.4913L81.2513 112.152V111.768C81.2193 111.416 81.102 111.101 80.8993 110.824C80.6966 110.547 80.4406 110.328 80.1313 110.168C79.822 110.008 79.486 109.928 79.1233 109.928C78.5473 109.928 78.062 110.04 77.6673 110.264C77.2726 110.477 76.974 110.797 76.7713 111.224C76.5686 111.64 76.4673 112.157 76.4673 112.776C76.4673 113.363 76.59 113.875 76.8353 114.312C77.0806 114.739 77.4273 115.069 77.8753 115.304C78.3233 115.539 78.8406 115.656 79.4273 115.656C79.8433 115.656 80.2273 115.587 80.5793 115.448C80.942 115.309 81.3313 115.059 81.7473 114.696L82.5793 115.864C82.3233 116.12 82.0086 116.344 81.6353 116.536C81.2726 116.728 80.8833 116.883 80.4673 117C80.062 117.107 79.662 117.16 79.2673 117.16ZM84.7223 117V108.6H86.3863V111.24L86.2263 110.6C86.3436 110.195 86.541 109.827 86.8183 109.496C87.1063 109.165 87.4316 108.904 87.7943 108.712C88.1676 108.52 88.5516 108.424 88.9463 108.424C89.1276 108.424 89.2983 108.44 89.4583 108.472C89.629 108.504 89.7623 108.541 89.8583 108.584L89.4263 110.376C89.2983 110.323 89.1543 110.28 88.9943 110.248C88.845 110.205 88.6956 110.184 88.5463 110.184C88.2583 110.184 87.981 110.243 87.7143 110.36C87.4583 110.467 87.229 110.621 87.0263 110.824C86.8343 111.016 86.6796 111.245 86.5623 111.512C86.445 111.768 86.3863 112.051 86.3863 112.36V117H84.7223ZM92.0874 117V107.656C92.0874 107.176 92.1941 106.749 92.4074 106.376C92.6208 106.003 92.9141 105.709 93.2874 105.496C93.6608 105.283 94.0928 105.176 94.5834 105.176C94.9248 105.176 95.2448 105.24 95.5434 105.368C95.8421 105.496 96.0821 105.667 96.2634 105.88L95.7034 107.144C95.5648 107.016 95.4101 106.915 95.2394 106.84C95.0794 106.755 94.9248 106.712 94.7754 106.712C94.5514 106.712 94.3594 106.749 94.1994 106.824C94.0501 106.888 93.9381 106.995 93.8634 107.144C93.7888 107.283 93.7514 107.453 93.7514 107.656V117H92.9194C92.7808 117 92.6421 117 92.5034 117C92.3648 117 92.2261 117 92.0874 117ZM90.7434 110.264V108.744H95.7354V110.264H90.7434ZM100.376 117.16C99.6829 117.16 99.0482 116.968 98.4722 116.584C97.9069 116.2 97.4535 115.677 97.1122 115.016C96.7709 114.355 96.6002 113.608 96.6002 112.776C96.6002 111.933 96.7709 111.187 97.1122 110.536C97.4642 109.875 97.9335 109.357 98.5202 108.984C99.1175 108.611 99.7842 108.424 100.52 108.424C100.958 108.424 101.358 108.488 101.72 108.616C102.083 108.744 102.398 108.925 102.664 109.16C102.942 109.384 103.166 109.645 103.336 109.944C103.518 110.243 103.63 110.563 103.672 110.904L103.304 110.776V108.6H104.968V117H103.304V115L103.688 114.888C103.624 115.176 103.491 115.459 103.288 115.736C103.096 116.003 102.846 116.243 102.536 116.456C102.238 116.669 101.902 116.84 101.528 116.968C101.166 117.096 100.782 117.16 100.376 117.16ZM100.808 115.64C101.31 115.64 101.752 115.517 102.136 115.272C102.52 115.027 102.819 114.691 103.032 114.264C103.256 113.827 103.368 113.331 103.368 112.776C103.368 112.232 103.256 111.747 103.032 111.32C102.819 110.893 102.52 110.557 102.136 110.312C101.752 110.067 101.31 109.944 100.808 109.944C100.318 109.944 99.8802 110.067 99.4962 110.312C99.1229 110.557 98.8242 110.893 98.6002 111.32C98.3869 111.747 98.2802 112.232 98.2802 112.776C98.2802 113.331 98.3869 113.827 98.6002 114.264C98.8242 114.691 99.1229 115.027 99.4962 115.272C99.8802 115.517 100.318 115.64 100.808 115.64ZM110.837 117.16C110.059 117.16 109.36 116.968 108.741 116.584C108.133 116.2 107.648 115.677 107.285 115.016C106.933 114.355 106.757 113.613 106.757 112.792C106.757 111.971 106.933 111.229 107.285 110.568C107.648 109.907 108.133 109.384 108.741 109C109.36 108.616 110.059 108.424 110.837 108.424C111.584 108.424 112.261 108.579 112.869 108.888C113.488 109.187 113.957 109.597 114.277 110.12L113.365 111.24C113.195 110.995 112.976 110.771 112.709 110.568C112.443 110.365 112.16 110.205 111.861 110.088C111.563 109.971 111.275 109.912 110.997 109.912C110.485 109.912 110.027 110.04 109.621 110.296C109.227 110.541 108.912 110.883 108.677 111.32C108.443 111.757 108.325 112.248 108.325 112.792C108.325 113.336 108.448 113.827 108.693 114.264C108.939 114.691 109.264 115.032 109.669 115.288C110.075 115.544 110.523 115.672 111.013 115.672C111.301 115.672 111.579 115.624 111.845 115.528C112.123 115.432 112.389 115.288 112.645 115.096C112.901 114.904 113.141 114.669 113.365 114.392L114.277 115.512C113.936 115.992 113.445 116.387 112.805 116.696C112.176 117.005 111.52 117.16 110.837 117.16ZM119.752 117.16C118.888 117.16 118.12 116.979 117.448 116.616C116.786 116.243 116.264 115.736 115.88 115.096C115.506 114.456 115.32 113.72 115.32 112.888C115.32 112.227 115.426 111.624 115.64 111.08C115.853 110.536 116.146 110.067 116.52 109.672C116.904 109.267 117.357 108.957 117.88 108.744C118.413 108.52 118.989 108.408 119.608 108.408C120.152 108.408 120.658 108.515 121.128 108.728C121.597 108.931 122.002 109.213 122.344 109.576C122.696 109.939 122.962 110.371 123.144 110.872C123.336 111.363 123.426 111.901 123.416 112.488L123.4 113.192H116.536L116.168 111.88H121.976L121.736 112.152V111.768C121.704 111.416 121.586 111.101 121.384 110.824C121.181 110.547 120.925 110.328 120.616 110.168C120.306 110.008 119.97 109.928 119.608 109.928C119.032 109.928 118.546 110.04 118.152 110.264C117.757 110.477 117.458 110.797 117.256 111.224C117.053 111.64 116.952 112.157 116.952 112.776C116.952 113.363 117.074 113.875 117.32 114.312C117.565 114.739 117.912 115.069 118.36 115.304C118.808 115.539 119.325 115.656 119.912 115.656C120.328 115.656 120.712 115.587 121.064 115.448C121.426 115.309 121.816 115.059 122.232 114.696L123.064 115.864C122.808 116.12 122.493 116.344 122.12 116.536C121.757 116.728 121.368 116.883 120.952 117C120.546 117.107 120.146 117.16 119.752 117.16ZM125.447 113.144C125.372 112.472 125.303 111.779 125.239 111.064C125.185 110.339 125.143 109.624 125.111 108.92C125.079 108.216 125.063 107.549 125.063 106.92V105.8H126.791V106.92C126.791 107.581 126.775 108.275 126.743 109C126.711 109.725 126.663 110.445 126.599 111.16C126.545 111.864 126.481 112.525 126.407 113.144H125.447ZM125.879 117.176C125.527 117.176 125.255 117.075 125.063 116.872C124.871 116.659 124.775 116.36 124.775 115.976C124.775 115.624 124.876 115.336 125.079 115.112C125.281 114.888 125.548 114.776 125.879 114.776C126.231 114.776 126.503 114.883 126.695 115.096C126.887 115.299 126.983 115.592 126.983 115.976C126.983 116.328 126.881 116.616 126.679 116.84C126.476 117.064 126.209 117.176 125.879 117.176Z" fill="white"/>
<defs>
<clipPath id="clip0_361_395">
<rect width="182" height="182" fill="white"/>
</clipPath>
</defs>
</svg>
